<svg width="1800" height="362" fill="none" xmlns="http://www.w3.org/2000/svg"><g clip-path="url(#a)"><path opacity=".04" d="M-215.671-97.16L1912.06-227l27.32 447.666C1167.41 311.834 707.263 340.46-188.353 350.506L-215.671-97.16z" fill="url(#b)"/><mask id="a" style="mask-type:alpha" maskUnits="userSpaceOnUse" x="-216" y="-227" width="2156" height="578"><path d="M-215.671-97.16L1912.06-227l27.32 447.666C1167.41 311.834 707.263 340.46-188.353 350.506L-215.671-97.16z" fill="#CAC3E4"/></mask><g mask="url(#a)" stroke-opacity=".5" stroke-width="3" stroke-linecap="round"><g opacity=".13"><path opacity=".5" d="M265.13 277.403a111.987 111.987 0 0 0 45.319 167.102 111.992 111.992 0 0 0 155.05-77.048 111.99 111.99 0 0 0-44.186-116.327" stroke="url(#d)"/><path opacity=".5" d="M278.583 313.736a82.876 82.876 0 0 0 21.57 89.52 82.864 82.864 0 0 0 90.96 14.331 82.87 82.87 0 0 0 32.249-123.997 82.88 82.88 0 0 0-38.385-29.008" stroke="url(#e)"/><path opacity=".5" d="M324.666 295.438a56.61 56.61 0 0 0-23.782 58.241c2.239 10.972 7.682 21.033 15.64 28.911a56.624 56.624 0 0 0 61.762 11.963 56.62 56.62 0 0 0 24.988-83.89" stroke="url(#f)"/></g><g opacity=".2"><path opacity=".5" d="M1886.69 301.168c8.71-20.544 11.1-43.122 6.87-64.876a110.558 110.558 0 0 0-30.66-57.344c-15.76-15.633-35.89-26.241-57.85-30.483-21.97-4.242-44.77-1.926-65.54 6.653-20.77 8.579-38.57 23.037-51.15 41.546-12.57 18.508-19.36 40.236-19.5 62.435a110.43 110.43 0 0 0 18.7 62.28c12.34 18.408 29.96 32.722 50.62 41.134" stroke="url(#g)"/><path opacity=".5" d="M1702.73 286.003c5.3 15.511 15.15 29.068 28.29 38.958 13.14 9.889 29 15.667 45.55 16.602a85.165 85.165 0 0 0 47.46-11.348c14.38-8.334 25.99-20.679 33.36-35.473 7.37-14.795 10.16-31.375 8.03-47.643a81.75 81.75 0 0 0-20.01-43.753c-10.92-12.258-25.3-20.999-41.32-25.116-16.01-4.117-32.96-3.426-48.68 1.987" stroke="url(#h)"/><path opacity=".5" d="M1727.45 242.5c-3.34 10.759-3.39 22.224-.15 32.944a55.983 55.983 0 0 0 18.37 27.279c8.73 7.066 19.41 11.388 30.69 12.42a58.128 58.128 0 0 0 32.66-6.626c10.02-5.351 18.25-13.508 23.63-23.438 5.39-9.93 7.7-21.188 6.64-32.351a55.855 55.855 0 0 0-12.61-30.358c-7.15-8.632-16.75-14.943-27.59-18.134" stroke="url(#i)"/></g></g></g><defs><linearGradient id="b" x1="299.5" y1="122" x2="1698.5" y2="117.5" gradientUnits="userSpaceOnUse"><stop stop-color="#CAC3E4"/><stop offset="1" stop-color="#39218D"/></linearGradient><linearGradient id="d" x1="273.494" y1="317.54" x2="426.008" y2="270.034" gradientUnits="userSpaceOnUse"><stop stop-color="#9D88F0"/><stop offset="1" stop-color="#F1EFF9"/></linearGradient><linearGradient id="e" x1="290.493" y1="388.142" x2="381.063" y2="270.148" gradientUnits="userSpaceOnUse"><stop stop-color="#7654FF"/><stop offset="1" stop-color="#F0EEF8"/></linearGradient><linearGradient id="f" x1="301.563" y1="341.443" x2="398.882" y2="312.187" gradientUnits="userSpaceOnUse"><stop stop-color="#7654FF"/><stop offset="1" stop-color="#F0EEF8"/></linearGradient><linearGradient id="g" x1="1869.57" y1="263.913" x2="1729.66" y2="345.634" gradientUnits="userSpaceOnUse"><stop stop-color="#9D88F0"/><stop offset="1" stop-color="#F1EFF9"/></linearGradient><linearGradient id="h" x1="1759.36" y1="336.014" x2="1754.39" y2="187.066" gradientUnits="userSpaceOnUse"><stop stop-color="#7654FF"/><stop offset="1" stop-color="#F0EEF8"/></linearGradient><linearGradient id="i" x1="1738.44" y1="292.819" x2="1795.48" y2="207.46" gradientUnits="userSpaceOnUse"><stop stop-color="#7654FF"/><stop offset="1" stop-color="#F0EEF8"/></linearGradient><clipPath id="a"><path fill="#fff" d="M0 0h1800v362H0z"/></clipPath></defs></svg>