<svg width="177" height="122" fill="none" xmlns="http://www.w3.org/2000/svg"><path fill-rule="evenodd" clip-rule="evenodd" d="M177 61c0-33.69-27.311-61-61-61H61C27.31 0 0 27.31 0 61s27.31 61 61 61h55c33.689 0 61-27.31 61-61ZM61 18.5h55c23.472 0 42.5 19.028 42.5 42.5s-19.028 42.5-42.5 42.5H61c-23.472 0-42.5-19.028-42.5-42.5S37.528 18.5 61 18.5Z" fill="#fff"/><path fill-rule="evenodd" clip-rule="evenodd" d="M177 61c0-33.69-27.311-61-61-61H61C27.31 0 0 27.31 0 61s27.31 61 61 61h55c33.689 0 61-27.31 61-61ZM61 18.5h55c23.472 0 42.5 19.028 42.5 42.5s-19.028 42.5-42.5 42.5H61c-23.472 0-42.5-19.028-42.5-42.5S37.528 18.5 61 18.5Z" fill="url(#a)"/><rect x="50" y="45" width="38" height="32" rx="10" fill="#DC83C1"/><rect x="50" y="45" width="38" height="32" rx="10" fill="url(#b)"/><rect x="50" y="45" width="38" height="32" rx="10" fill="#DC83C1"/><rect x="50" y="45" width="38" height="32" rx="10" fill="url(#c)"/><defs><linearGradient id="a" x1="133" y1="60.724" x2="0" y2="60.724" gradientUnits="userSpaceOnUse"><stop stop-color="#B34EF5"/><stop offset="1" stop-color="#EF9BA9"/></linearGradient><linearGradient id="b" x1="78.554" y1="60.928" x2="50" y2="60.928" gradientUnits="userSpaceOnUse"><stop stop-color="#C666DE"/><stop offset="1" stop-color="#DA7FC5"/></linearGradient><linearGradient id="c" x1="78.554" y1="60.928" x2="50" y2="60.928" gradientUnits="userSpaceOnUse"><stop stop-color="#B753F0"/><stop offset="1" stop-color="#C767DD"/></linearGradient></defs></svg>
